<svg width="24" height="24" viewBox="0 0 24 24" fill="none" xmlns="http://www.w3.org/2000/svg">
<g opacity="0.1">
<path fill-rule="evenodd" clip-rule="evenodd" d="M7.71238 17C7.84563 17 7.97335 16.9468 8.06718 16.8521L8.77679 16.1521C8.87139 16.0582 8.92461 15.9304 8.92461 15.7971C8.92461 15.6638 8.87139 15.536 8.77679 15.4421L5.32871 12.0021L8.77679 8.5621C8.8708 8.46994 8.92378 8.34379 8.92378 8.2121C8.92378 8.08041 8.8708 7.95426 8.77679 7.8621L8.06718 7.1521C7.97335 7.05744 7.84563 7.0042 7.71238 7.0042C7.57914 7.0042 7.45141 7.05744 7.35758 7.1521L3.21988 11.2821C3.08107 11.4238 3.0023 11.6137 3 11.8121L3 12.1921C3.00017 12.3909 3.07926 12.5816 3.21988 12.7221L7.35758 16.8521C7.45141 16.9468 7.57914 17 7.71238 17ZM15.0654 8.2071C15.0654 8.07378 15.1186 7.94598 15.2132 7.8521L15.9328 7.1521C16.0266 7.05744 16.1544 7.0042 16.2876 7.0042C16.4209 7.0042 16.5486 7.05744 16.6424 7.1521L20.7801 11.2821C20.9207 11.4226 20.9998 11.6133 21 11.8121L21 12.1921C20.9977 12.3905 20.9189 12.5804 20.7801 12.7221L16.6424 16.8521C16.5486 16.9468 16.4209 17 16.2876 17C16.1544 17 16.0266 16.9468 15.9328 16.8521L15.2232 16.1421C15.1292 16.0499 15.0762 15.9238 15.0762 15.7921C15.0762 15.6604 15.1292 15.5343 15.2232 15.4421L18.6613 12.0021L15.2132 8.5621C15.1186 8.46822 15.0654 8.34042 15.0654 8.2071Z" fill="black"/>
</g>
</svg>
