<svg width="695" height="594" viewBox="0 0 695 594" fill="none" xmlns="http://www.w3.org/2000/svg">
<g clip-path="url(#clip0)">
<mask id="path-1-inside-1" fill="white">
<path d="M217 344C186.279 344 161.375 368.904 161.375 399.625C161.375 430.346 186.279 455.25 217 455.25C247.721 455.25 272.625 430.346 272.625 399.625C272.625 384.872 266.765 370.724 256.333 360.292C245.901 349.86 231.753 344 217 344Z"/>
</mask>
<path d="M217 344C186.279 344 161.375 368.904 161.375 399.625C161.375 430.346 186.279 455.25 217 455.25C247.721 455.25 272.625 430.346 272.625 399.625C272.625 384.872 266.765 370.724 256.333 360.292C245.901 349.86 231.753 344 217 344Z" fill="#5F47F0"/>
<path d="M217 340.292C184.231 340.292 157.667 366.856 157.667 399.625H165.083C165.083 370.952 188.327 347.708 217 347.708V340.292ZM157.667 399.625C157.667 432.394 184.231 458.958 217 458.958V451.542C188.327 451.542 165.083 428.298 165.083 399.625H157.667ZM217 458.958C249.769 458.958 276.333 432.394 276.333 399.625H268.917C268.917 428.298 245.673 451.542 217 451.542V458.958ZM276.333 399.625C276.333 383.889 270.082 368.797 258.955 357.67L253.711 362.914C263.447 372.651 268.917 385.856 268.917 399.625H276.333ZM258.955 357.67C247.828 346.543 232.736 340.292 217 340.292V347.708C230.769 347.708 243.974 353.178 253.711 362.914L258.955 357.67Z" fill="#5F47F0" mask="url(#path-1-inside-1)"/>
<g clip-path="url(#clip1)">
<path d="M236.582 401.814C236.233 401.788 237.557 401.475 219.95 405.916C219.229 406.098 218.724 406.747 218.724 407.49C218.724 420.768 218.723 417.736 218.723 419.976C215.607 418.762 212.235 421.076 212.235 424.417C212.235 425.684 212.723 426.891 213.608 427.814C215.496 429.784 218.504 429.784 220.392 427.814C221.277 426.891 221.765 425.684 221.765 424.417V415.19L234.945 411.782V416.732C231.875 415.536 228.557 417.764 228.459 421.024C228.382 423.565 230.35 425.752 232.886 425.926C235.856 426.13 237.986 424.013 237.986 420.654C237.986 420.531 237.992 403.299 237.977 403.163C237.899 402.459 237.331 401.873 236.582 401.814V401.814Z" fill="white"/>
<path d="M215.377 399.375C216.777 399.375 217.912 398.24 217.912 396.841C217.912 395.441 216.777 394.306 215.377 394.306C213.978 394.306 212.843 395.441 212.843 396.841C212.843 398.24 213.978 399.375 215.377 399.375Z" fill="white"/>
<path d="M215.682 416.199V405.041C215.682 404.344 216.156 403.737 216.831 403.566L234.614 399.082C235.947 387.474 226.879 377.375 215.378 377.375C204.7 377.375 196.013 386.107 196.013 396.841C196.013 407.914 205.115 416.379 215.682 416.199V416.199ZM209.801 396.841C209.801 393.766 212.303 391.265 215.378 391.265C218.452 391.265 220.954 393.766 220.954 396.841C220.954 399.916 218.452 402.417 215.378 402.417C212.303 402.417 209.801 399.916 209.801 396.841Z" fill="white"/>
</g>
<path d="M166.119 484.375V471.311H163.385L159.456 481.007H159.293L155.363 471.311H152.629V484.375H154.802V475.113H154.929L158.541 483.968H160.207L163.819 475.113H163.946V484.375H166.119ZM170.374 487.96C172.592 487.96 173.652 487.154 174.494 484.719L178.07 474.479H175.698L173.389 482.247H173.235L170.917 474.479H168.455L171.995 484.411L171.877 484.873C171.587 485.805 171.053 486.168 170.103 486.168C169.949 486.168 169.614 486.159 169.487 486.14V487.924C169.632 487.951 170.238 487.96 170.374 487.96ZM183.493 484.565C186.037 484.565 187.657 483.298 187.657 481.46C187.657 480.337 186.997 479.549 185.611 479.278V479.124C186.68 478.879 187.341 478.074 187.341 477.024C187.341 475.34 185.892 474.28 183.547 474.28C181.094 474.28 179.699 475.484 179.5 477.25H181.637C181.755 476.517 182.434 476.046 183.475 476.046C184.597 476.046 185.141 476.58 185.141 477.295C185.141 478.119 184.597 478.59 183.448 478.59H182.035V480.111H183.457C184.742 480.111 185.421 480.545 185.421 481.433C185.421 482.256 184.697 482.809 183.466 482.809C182.379 482.809 181.628 482.374 181.429 481.568H179.238C179.428 483.542 181.211 484.565 183.493 484.565ZM199.373 484.375H201.609V474.479H199.373V484.375ZM190.138 484.375H194.348C196.657 484.375 198.132 483.035 198.132 480.926C198.132 478.816 196.657 477.467 194.348 477.467H192.383V474.479H190.138V484.375ZM194.076 479.205C195.181 479.205 195.896 479.884 195.896 480.917C195.896 481.94 195.19 482.628 194.076 482.628H192.383V479.205H194.076ZM207.295 480.102L210.59 484.375H213.315L209.123 479.061L213.125 474.479H210.536L207.276 478.454H206.779V474.479H204.533V484.375H206.779V480.102H207.295ZM217.733 484.538C219.028 484.538 220.114 483.977 220.667 483.017H220.821V484.375H222.984V477.612C222.984 475.521 221.554 474.289 219.01 474.289C216.656 474.289 215.017 475.394 214.836 477.123H216.955C217.163 476.444 217.869 476.073 218.901 476.073C220.114 476.073 220.766 476.625 220.766 477.612V478.463L218.213 478.617C215.805 478.753 214.456 479.794 214.456 481.568C214.456 483.379 215.823 484.538 217.733 484.538ZM218.394 482.809C217.398 482.809 216.683 482.311 216.683 481.46C216.683 480.636 217.272 480.174 218.53 480.093L220.766 479.939V480.745C220.766 481.921 219.752 482.809 218.394 482.809ZM228.779 479.794L229.023 476.236H231.929V484.375H234.166V474.479H227.068L226.742 479.676C226.642 481.342 226.316 482.492 225.356 482.492C225.112 482.492 224.913 482.447 224.813 482.419V484.366C224.94 484.411 225.193 484.475 225.565 484.475C227.855 484.475 228.589 482.637 228.779 479.794ZM237.09 484.375H241.3C243.608 484.375 245.084 483.035 245.084 480.926C245.084 478.816 243.608 477.467 241.3 477.467H239.335V474.479H237.09V484.375ZM241.028 479.205C242.133 479.205 242.848 479.884 242.848 480.917C242.848 481.94 242.142 482.628 241.028 482.628H239.335V479.205H241.028ZM253.848 484.375H256.093V474.479H253.848V478.4H249.656V474.479H247.411V484.375H249.656V480.156H253.848V484.375ZM268.252 484.375H270.488V474.479H268.252V484.375ZM259.018 484.375H263.227C265.536 484.375 267.012 483.035 267.012 480.926C267.012 478.816 265.536 477.467 263.227 477.467H261.263V474.479H259.018V484.375ZM262.956 479.205C264.06 479.205 264.776 479.884 264.776 480.917C264.776 481.94 264.069 482.628 262.956 482.628H261.263V479.205H262.956ZM279.877 481.668C279.551 482.41 278.781 482.827 277.668 482.827C276.192 482.827 275.241 481.777 275.187 480.102V479.984H282.104V479.269C282.104 476.163 280.411 474.289 277.586 474.289C274.716 474.289 272.933 476.29 272.933 479.468C272.933 482.637 274.689 484.574 277.604 484.574C279.94 484.574 281.597 483.452 282.004 481.668H279.877ZM277.577 476.037C278.926 476.037 279.814 476.987 279.859 478.49H275.196C275.296 477.005 276.237 476.037 277.577 476.037ZM157.183 506.375V499.621H157.355L160.08 505.931H161.692L164.426 499.621H164.589V506.375H166.744V496.479H163.937L160.995 503.369H160.832L157.898 496.479H155.038V506.375H157.183ZM176.132 503.668C175.806 504.41 175.037 504.827 173.923 504.827C172.447 504.827 171.497 503.777 171.443 502.102V501.984H178.359V501.269C178.359 498.163 176.666 496.289 173.842 496.289C170.972 496.289 169.188 498.29 169.188 501.468C169.188 504.637 170.945 506.574 173.86 506.574C176.196 506.574 177.852 505.452 178.26 503.668H176.132ZM173.833 498.037C175.182 498.037 176.069 498.987 176.114 500.49H171.452C171.551 499.005 172.493 498.037 173.833 498.037ZM186.191 496.317C184.833 496.317 183.683 496.996 183.113 498.118H182.959V496.479H180.795V509.661H183.04V504.872H183.194C183.701 505.922 184.797 506.538 186.218 506.538C188.717 506.538 190.274 504.573 190.274 501.432C190.274 498.263 188.699 496.317 186.191 496.317ZM185.485 504.673C183.955 504.673 183.004 503.433 182.995 501.432C183.004 499.431 183.964 498.191 185.494 498.191C187.033 498.191 187.965 499.404 187.965 501.432C187.965 503.46 187.042 504.673 185.485 504.673ZM196.983 506.574C199.943 506.574 201.745 504.637 201.745 501.423C201.745 498.227 199.934 496.289 196.983 496.289C194.04 496.289 192.22 498.236 192.22 501.423C192.22 504.637 194.013 506.574 196.983 506.574ZM196.983 504.736C195.416 504.736 194.52 503.523 194.52 501.432C194.52 499.34 195.416 498.127 196.983 498.127C198.54 498.127 199.436 499.34 199.436 501.432C199.436 503.523 198.549 504.736 196.983 504.736ZM210.527 506.375H212.772V496.479H204.18V506.375H206.425V498.236H210.527V506.375ZM221.101 496.317C219.743 496.317 218.593 496.996 218.023 498.118H217.869V496.479H215.705V509.661H217.951V504.872H218.105C218.612 505.922 219.707 506.538 221.128 506.538C223.627 506.538 225.184 504.573 225.184 501.432C225.184 498.263 223.609 496.317 221.101 496.317ZM220.395 504.673C218.865 504.673 217.914 503.433 217.905 501.432C217.914 499.431 218.874 498.191 220.404 498.191C221.943 498.191 222.876 499.404 222.876 501.432C222.876 503.46 221.952 504.673 220.395 504.673ZM229.829 506.375L234.048 499.712H234.202V506.375H236.42V496.479H234.202L229.983 503.107H229.829V496.479H227.611V506.375H229.829ZM244.767 506.375H246.976V496.479H242.893C240.584 496.479 239.063 497.774 239.063 499.847C239.063 501.214 239.887 502.274 241.236 502.672L238.584 506.375H241.155L243.473 503.043H244.767V506.375ZM243.065 501.377C241.988 501.377 241.282 500.744 241.282 499.847C241.282 498.852 241.979 498.227 243.065 498.227H244.767V501.377H243.065ZM257.46 496.479H249.113V498.236H252.164V506.375H254.409V498.236H257.46V496.479ZM261.806 506.375L266.025 499.712H266.179V506.375H268.397V496.479H266.179L261.96 503.107H261.806V496.479H259.588V506.375H261.806ZM276.744 506.375H278.953V496.479H274.87C272.562 496.479 271.041 497.774 271.041 499.847C271.041 501.214 271.864 502.274 273.213 502.672L270.561 506.375H273.132L275.45 503.043H276.744V506.375ZM275.042 501.377C273.965 501.377 273.259 500.744 273.259 499.847C273.259 498.852 273.956 498.227 275.042 498.227H276.744V501.377H275.042Z" fill="#808080"/>
<path d="M90 158C70.67 158 55 173.67 55 193C55 212.33 70.67 228 90 228C109.33 228 125 212.33 125 193C125 183.717 121.313 174.815 114.749 168.251C108.185 161.687 99.2826 158 90 158Z" fill="#F07048"/>
<g clip-path="url(#clip2)">
<path fill-rule="evenodd" clip-rule="evenodd" d="M90.0001 180.75C90.0001 182.361 88.6941 183.667 87.0823 183.667C85.4717 183.667 84.1667 182.361 84.1667 180.75C84.1667 179.139 85.4717 177.833 87.0823 177.833C88.694 177.833 90.0001 179.139 90.0001 180.75ZM97.012 186.067C97.0028 186.045 96.9936 186.023 96.9882 186C97.3193 186.037 97.6363 186.17 97.8633 186.402C98.3353 186.886 98.2472 187.597 97.6649 187.99L93.8046 190.597C93.7774 190.615 93.7468 190.627 93.7162 190.64L93.7162 190.64C93.6954 190.648 93.6747 190.656 93.6549 190.667L93.6381 190.594C93.603 190.441 93.568 190.288 93.5001 190.137L94.3878 189.286C94.4737 189.3 94.5609 189.307 94.6488 189.307C95.0517 189.307 95.4337 189.16 95.6954 188.907C95.7825 188.823 95.8548 188.73 95.9088 188.631C96.0168 188.573 96.1165 188.503 96.2035 188.42C96.2936 188.333 96.3657 188.238 96.4198 188.138C96.5304 188.08 96.6307 188.009 96.7191 187.925C97.0824 187.578 97.1514 187.103 96.9458 186.709C97.0233 186.535 97.0563 186.349 97.0401 186.159C97.0371 186.126 97.0245 186.097 97.012 186.067ZM83.0044 194.167C83.0763 194.465 83.1834 194.755 83.3223 195.038C83.6678 195.737 84.193 196.384 84.8994 196.909C85.3868 197.271 85.9307 197.548 86.5001 197.756V206.668C86.5001 207.496 85.7161 208.167 84.7502 208.167C83.7839 208.167 83.0001 207.496 83.0001 206.668C83.0001 206.373 83.0011 203.399 83.0022 200.423L83.0022 200.42L83.0022 200.418C83.0033 197.44 83.0044 194.462 83.0044 194.167ZM87.6667 198.265V206.696C87.6667 207.508 88.451 208.167 89.4168 208.167C90.3829 208.167 91.1667 207.508 91.1667 206.696V197.667C90.4227 198.097 89.5263 198.336 88.5457 198.336C88.2512 198.336 87.9575 198.306 87.6667 198.265ZM100.411 177.871C100.356 177.837 100.283 177.825 100.215 177.839L97.0125 178.455C96.8466 178.487 96.7301 178.602 96.7301 178.734V181.243C96.7184 181.242 96.7076 181.24 96.6969 181.237C96.6833 181.234 96.67 181.231 96.6553 181.231C96.2015 181.231 95.8334 181.515 95.8334 181.866C95.8334 182.216 96.2015 182.5 96.6553 182.5C97.109 182.5 97.4771 182.216 97.4771 181.866V179.438L99.7531 178.999V180.497C99.7414 180.496 99.7306 180.493 99.7199 180.491C99.7065 180.488 99.6932 180.485 99.6783 180.485C99.2245 180.485 98.857 180.769 98.857 181.119C98.857 181.469 99.2246 181.753 99.6783 181.753C100.132 181.753 100.5 181.469 100.5 181.119V178.011C100.5 177.956 100.467 177.905 100.411 177.871ZM106.048 184.839C106.116 184.825 106.19 184.837 106.244 184.871C106.3 184.905 106.333 184.956 106.333 185.011V188.119C106.333 188.469 105.965 188.753 105.512 188.753C105.058 188.753 104.69 188.469 104.69 188.119C104.69 187.769 105.058 187.485 105.512 187.485C105.527 187.485 105.54 187.488 105.553 187.491C105.564 187.493 105.575 187.496 105.586 187.497V185.999L103.31 186.438V188.866C103.31 189.216 102.942 189.5 102.489 189.5C102.035 189.5 101.667 189.216 101.667 188.866C101.667 188.515 102.035 188.231 102.489 188.231C102.503 188.231 102.517 188.234 102.53 188.237C102.541 188.24 102.552 188.242 102.563 188.243V185.734C102.563 185.602 102.68 185.487 102.846 185.455L106.048 184.839ZM94.0667 187.85L94.3564 188.08C94.4113 188.123 94.4782 188.145 94.5441 188.145C94.6244 188.145 94.7036 188.113 94.7604 188.053C94.8646 187.944 94.8509 187.778 94.7314 187.683L94.443 187.455L94.5676 187.322L94.8565 187.552C94.9109 187.595 94.978 187.616 95.0449 187.616C95.1253 187.616 95.2045 187.585 95.2625 187.525C95.3656 187.416 95.3531 187.25 95.2336 187.155L94.9439 186.926L95.0697 186.794L95.3593 187.023C95.4126 187.066 95.4797 187.087 95.5458 187.087C95.6262 187.087 95.7054 187.056 95.7631 186.997C95.8673 186.887 95.854 186.722 95.7345 186.627L95.4449 186.397L95.7015 186.127C95.8716 185.948 95.8508 185.677 95.6541 185.521L94.9193 184.938C94.8306 184.868 94.7214 184.833 94.6121 184.833C94.4803 184.833 94.3495 184.883 94.2565 184.981L93.9999 185.251L93.7114 185.022C93.6569 184.979 93.5911 184.958 93.524 184.958C93.4438 184.958 93.3629 184.988 93.3066 185.048C93.2034 185.157 93.2167 185.323 93.3352 185.419L93.6248 185.648L93.4993 185.779L93.2106 185.55C93.1561 185.508 93.0889 185.486 93.0232 185.486C92.9429 185.486 92.8626 185.517 92.8057 185.577C92.7026 185.686 92.7148 185.852 92.8335 185.947L93.1231 186.176L92.9985 186.308L92.7089 186.079C92.654 186.036 92.587 186.015 92.5212 186.015C92.4409 186.015 92.3605 186.046 92.3037 186.105C92.1998 186.215 92.2131 186.38 92.3326 186.475L92.6223 186.705L90.7289 188.7C90.3468 188.545 89.9479 188.467 89.5657 188.467C88.9339 188.467 88.3433 188.679 87.9373 189.107C87.6836 189.375 87.5408 189.699 87.484 190.044L88.6094 190.436C89.1021 190.005 89.8738 189.966 90.3994 190.383C90.9578 190.825 91.0179 191.599 90.5334 192.11C90.4303 192.219 90.3034 192.297 90.1736 192.364C90.1912 192.658 90.1458 192.96 90.0244 193.253C89.6638 194.119 88.762 194.652 87.8056 194.652C87.5243 194.652 87.2378 194.606 86.9595 194.509L84.1667 193.536C84.3584 194.262 84.8036 194.975 85.5114 195.536C86.3207 196.178 87.2973 196.5 88.2169 196.5C89.1103 196.5 89.9491 196.196 90.5284 195.585C91.1938 194.883 91.3722 193.926 91.1115 193C91.5043 192.905 91.8577 192.716 92.1278 192.431C92.7799 191.743 92.7623 190.706 92.1752 189.846L94.0667 187.85ZM88.932 193.386C88.7336 193.869 88.238 194.167 87.7131 194.167C87.558 194.167 87.401 194.141 87.2482 194.086L81.5065 192.054C80.8215 191.811 80.4823 191.088 80.7687 190.452C81.1441 189.622 81.2975 189.283 81.4508 188.944C81.6864 188.422 81.9218 187.901 82.9624 185.598C83.1837 185.106 83.7136 184.836 84.256 184.871C84.5671 184.834 88.8231 184.806 89.3003 184.878C89.7039 184.861 90.1106 184.996 90.3819 185.312L91.1667 186.227C91.0321 186.514 91.0158 186.834 91.1222 187.123L90.2688 188.037C89.9975 187.981 89.7234 187.953 89.4543 187.953C88.5623 187.953 87.662 188.28 87.0545 188.931C86.868 189.13 86.7148 189.354 86.5966 189.594C86.2073 189.624 85.8433 189.715 85.4948 189.834L84.101 189.341L83.6962 190.235L88.1781 191.822C88.8506 192.06 89.1891 192.761 88.932 193.386Z" fill="white"/>
</g>
<path d="M52.2257 241.334V237.78H50.7788V241.334H50.4769L47.6912 237.78H46.0278L49.2692 241.813L45.8 246H47.5602L50.4712 242.445H50.7788V246H52.2257V242.445H52.5334L55.4443 246H57.2274L53.741 241.785L56.9596 237.78H55.3133L52.5277 241.334H52.2257ZM59.8877 246L62.5423 241.807H62.6392V246H64.0348V239.774H62.6392L59.9845 243.944H59.8877V239.774H58.492V246H59.8877ZM68.8599 246C70.2441 246 71.0872 245.288 71.0872 244.223C71.0872 243.465 70.5461 242.895 69.7257 242.804V242.707C70.3581 242.599 70.8081 242.024 70.8081 241.369C70.8081 240.406 70.0732 239.774 68.82 239.774H65.8748V246H68.8599ZM67.2705 240.753H68.4953C69.1219 240.753 69.4238 241.072 69.4238 241.551C69.4238 242.075 69.082 242.36 68.3813 242.36H67.2705V240.753ZM67.2705 243.311H68.4839C69.2586 243.311 69.6574 243.596 69.6574 244.16C69.6574 244.701 69.2985 245.02 68.6149 245.02H67.2705V243.311ZM74.3628 246.103C75.1774 246.103 75.861 245.749 76.2085 245.146H76.3053V246H77.6668V241.745C77.6668 240.429 76.7668 239.654 75.166 239.654C73.6849 239.654 72.6538 240.349 72.5399 241.437H73.8729C74.0039 241.01 74.4482 240.776 75.0977 240.776C75.861 240.776 76.2712 241.124 76.2712 241.745V242.28L74.6647 242.377C73.1494 242.462 72.3006 243.118 72.3006 244.234C72.3006 245.373 73.1608 246.103 74.3628 246.103ZM74.7786 245.014C74.152 245.014 73.702 244.701 73.702 244.166C73.702 243.647 74.0723 243.357 74.8641 243.306L76.2712 243.209V243.716C76.2712 244.456 75.6331 245.014 74.7786 245.014ZM82.8906 246H84.2806V239.774H81.7114C80.2588 239.774 79.3018 240.588 79.3018 241.893C79.3018 242.753 79.8201 243.419 80.6689 243.67L78.9998 246H80.6177L82.076 243.904H82.8906V246ZM81.8197 242.855C81.1418 242.855 80.6974 242.457 80.6974 241.893C80.6974 241.266 81.1361 240.873 81.8197 240.873H82.8906V242.855H81.8197ZM97.8727 246V237.78H96.1523L93.68 243.881H93.5775L91.1051 237.78H89.3848V246H90.752V240.172H90.8317L93.1047 245.744H94.1528L96.4258 240.172H96.5055V246H97.8727ZM100.55 248.256C101.946 248.256 102.612 247.749 103.142 246.216L105.392 239.774H103.9L102.447 244.661H102.35L100.892 239.774H99.3425L101.57 246.023L101.496 246.313C101.313 246.9 100.977 247.128 100.379 247.128C100.282 247.128 100.072 247.122 99.9919 247.111V248.233C100.083 248.25 100.465 248.256 100.55 248.256ZM108.805 246.12C110.405 246.12 111.425 245.322 111.425 244.166C111.425 243.459 111.009 242.964 110.138 242.793V242.696C110.81 242.542 111.226 242.035 111.226 241.374C111.226 240.315 110.314 239.648 108.839 239.648C107.295 239.648 106.418 240.406 106.292 241.517H107.637C107.711 241.055 108.138 240.759 108.793 240.759C109.5 240.759 109.841 241.095 109.841 241.545C109.841 242.064 109.5 242.36 108.776 242.36H107.887V243.317H108.782C109.591 243.317 110.018 243.59 110.018 244.149C110.018 244.667 109.562 245.014 108.787 245.014C108.104 245.014 107.631 244.741 107.506 244.234H106.127C106.247 245.476 107.369 246.12 108.805 246.12ZM118.796 246H120.203V239.774H118.796V246ZM112.986 246H115.635C117.087 246 118.016 245.157 118.016 243.83C118.016 242.502 117.087 241.653 115.635 241.653H114.399V239.774H112.986V246ZM115.464 242.747C116.159 242.747 116.609 243.174 116.609 243.824C116.609 244.468 116.165 244.901 115.464 244.901H114.399V242.747H115.464ZM123.781 243.311L125.854 246H127.569L124.932 242.656L127.45 239.774H125.82L123.77 242.274H123.456V239.774H122.043V246H123.456V243.311H123.781ZM130.349 246.103C131.164 246.103 131.847 245.749 132.195 245.146H132.292V246H133.653V241.745C133.653 240.429 132.753 239.654 131.152 239.654C129.671 239.654 128.64 240.349 128.526 241.437H129.859C129.99 241.01 130.435 240.776 131.084 240.776C131.847 240.776 132.257 241.124 132.257 241.745V242.28L130.651 242.377C129.136 242.462 128.287 243.118 128.287 244.234C128.287 245.373 129.147 246.103 130.349 246.103ZM130.765 245.014C130.138 245.014 129.688 244.701 129.688 244.166C129.688 243.647 130.059 243.357 130.85 243.306L132.257 243.209V243.716C132.257 244.456 131.619 245.014 130.765 245.014Z" fill="#808080"/>
<path d="M461.5 448C447.52 448 436.188 459.333 436.188 473.312C436.188 487.292 447.52 498.625 461.5 498.625C475.48 498.625 486.812 487.292 486.812 473.312C486.812 466.599 484.146 460.161 479.399 455.414C474.652 450.667 468.213 448 461.5 448Z" fill="#38CC7D"/>
<path d="M471.543 482.215C471.305 481.975 470.85 481.467 470.481 480.762C469.787 479.44 469.686 478.048 470.179 476.625C470.688 475.156 470.937 473.748 470.918 472.437L470.918 472.387C470.918 467.314 466.724 463.188 461.569 463.188C456.413 463.188 452.219 467.314 452.219 472.387C452.219 477.459 456.413 481.586 461.569 481.586C464.146 481.586 466.546 480.576 468.328 478.743C468.383 479.702 468.652 480.639 469.128 481.527C469.611 482.427 470.193 483.059 470.497 483.356C470.551 483.408 470.624 483.438 470.699 483.438C470.704 483.438 470.708 483.437 470.712 483.437C470.792 483.434 470.867 483.398 470.919 483.337L471.557 482.595C471.653 482.484 471.647 482.319 471.543 482.215ZM457.594 470.129C457.321 470.593 456.813 470.882 456.267 470.882C456 470.882 455.736 470.812 455.504 470.68C455.15 470.479 454.896 470.154 454.791 469.766C454.685 469.377 454.739 468.972 454.944 468.624C455.216 468.159 455.724 467.871 456.27 467.871C456.537 467.871 456.801 467.94 457.034 468.072C457.764 468.488 458.015 469.41 457.594 470.129ZM454.791 475.008C454.896 474.619 455.15 474.295 455.503 474.094C455.736 473.962 456 473.892 456.267 473.892C456.813 473.892 457.321 474.18 457.594 474.645C458.015 475.364 457.764 476.286 457.034 476.701C456.801 476.833 456.537 476.903 456.27 476.903C455.724 476.903 455.216 476.615 454.944 476.15C454.739 475.802 454.685 475.396 454.791 475.008ZM461.569 476.903C461.977 476.903 462.361 477.059 462.65 477.344C462.939 477.628 463.099 478.006 463.099 478.408C463.099 479.238 462.412 479.914 461.569 479.914C460.725 479.914 460.039 479.238 460.039 478.408C460.039 477.578 460.725 476.903 461.569 476.903ZM461.569 467.871C460.725 467.871 460.039 467.196 460.039 466.366C460.039 465.535 460.725 464.86 461.569 464.86C462.412 464.86 463.098 465.535 463.098 466.366C463.098 467.196 462.412 467.871 461.569 467.871ZM461.569 470.422C462.67 470.422 463.566 471.303 463.566 472.387C463.566 473.47 462.67 474.352 461.569 474.352C460.467 474.352 459.571 473.471 459.571 472.387C459.571 471.303 460.467 470.422 461.569 470.422ZM467.634 470.68C467.401 470.812 467.137 470.882 466.87 470.882C466.324 470.882 465.816 470.593 465.543 470.129C465.122 469.41 465.373 468.488 466.103 468.072C466.336 467.94 466.6 467.871 466.867 467.871C467.413 467.871 467.921 468.159 468.194 468.623C468.615 469.342 468.364 470.265 467.634 470.68ZM465.544 474.645C465.816 474.18 466.324 473.892 466.87 473.892C467.137 473.892 467.401 473.962 467.634 474.094C467.987 474.295 468.24 474.619 468.345 475.008C468.452 475.397 468.397 475.803 468.194 476.15C467.921 476.615 467.413 476.903 466.867 476.903C466.6 476.903 466.336 476.833 466.104 476.701C465.373 476.286 465.122 475.364 465.544 474.645Z" fill="white"/>
<path d="M445.449 511.688V505.743H440.505V511.688H441.572V506.645H444.39V511.688H445.449ZM449.346 507.11C448.728 507.11 448.205 507.419 447.946 507.93H447.876V507.184H446.891V513.183H447.913V511.004H447.983C448.213 511.482 448.712 511.762 449.359 511.762C450.496 511.762 451.204 510.868 451.204 509.438C451.204 507.996 450.488 507.11 449.346 507.11ZM449.025 510.913C448.329 510.913 447.896 510.349 447.892 509.438C447.896 508.528 448.333 507.963 449.029 507.963C449.73 507.963 450.154 508.515 450.154 509.438C450.154 510.361 449.734 510.913 449.025 510.913ZM454.257 511.778C455.604 511.778 456.424 510.896 456.424 509.434C456.424 507.98 455.6 507.098 454.257 507.098C452.918 507.098 452.09 507.984 452.09 509.434C452.09 510.896 452.906 511.778 454.257 511.778ZM454.257 510.942C453.545 510.942 453.137 510.39 453.137 509.438C453.137 508.486 453.545 507.934 454.257 507.934C454.966 507.934 455.374 508.486 455.374 509.438C455.374 510.39 454.97 510.942 454.257 510.942ZM461.43 508.688C461.323 507.757 460.622 507.098 459.465 507.098C458.109 507.098 457.314 507.967 457.314 509.426C457.314 510.901 458.113 511.778 459.469 511.778C460.61 511.778 461.319 511.144 461.43 510.213H460.458C460.351 510.686 459.996 510.938 459.465 510.938C458.769 510.938 458.348 510.382 458.348 509.426C458.348 508.486 458.764 507.934 459.465 507.934C460.025 507.934 460.363 508.252 460.458 508.688H461.43ZM463.461 511.688V508.614H463.539L464.779 511.486H465.513L466.757 508.614H466.831V511.688H467.812V507.184H466.534L465.196 510.32H465.121L463.787 507.184H462.485V511.688H463.461ZM471.091 511.778C472.438 511.778 473.258 510.896 473.258 509.434C473.258 507.98 472.434 507.098 471.091 507.098C469.752 507.098 468.924 507.984 468.924 509.434C468.924 510.896 469.74 511.778 471.091 511.778ZM471.091 510.942C470.378 510.942 469.97 510.39 469.97 509.438C469.97 508.486 470.378 507.934 471.091 507.934C471.8 507.934 472.208 508.486 472.208 509.438C472.208 510.39 471.804 510.942 471.091 510.942ZM477.543 507.184H473.744V507.984H475.133V511.688H476.154V507.984H477.543V507.184ZM480.971 507.11C480.353 507.11 479.829 507.419 479.57 507.93H479.5V507.184H478.515V513.183H479.537V511.004H479.607C479.838 511.482 480.336 511.762 480.983 511.762C482.12 511.762 482.829 510.868 482.829 509.438C482.829 507.996 482.112 507.11 480.971 507.11ZM480.649 510.913C479.953 510.913 479.52 510.349 479.516 509.438C479.52 508.528 479.957 507.963 480.653 507.963C481.354 507.963 481.778 508.515 481.778 509.438C481.778 510.361 481.358 510.913 480.649 510.913ZM431.017 519.743L432.517 521.688H433.757L431.849 519.269L433.67 517.184H432.492L431.009 518.993H430.782V517.184H429.76V521.688H430.782V519.743H431.017ZM435.681 521.688L437.601 518.655H437.671V521.688H438.68V517.184H437.671L435.751 520.2H435.681V517.184H434.671V521.688H435.681ZM442.94 521.688H443.962V517.184H442.94V518.968H441.032V517.184H440.011V521.688H441.032V519.768H442.94V521.688ZM447.241 521.778C448.588 521.778 449.408 520.896 449.408 519.434C449.408 517.98 448.584 517.098 447.241 517.098C445.902 517.098 445.074 517.984 445.074 519.434C445.074 520.896 445.89 521.778 447.241 521.778ZM447.241 520.942C446.528 520.942 446.121 520.39 446.121 519.438C446.121 518.486 446.528 517.934 447.241 517.934C447.95 517.934 448.358 518.486 448.358 519.438C448.358 520.39 447.954 520.942 447.241 520.942ZM450.797 522.961L452.931 515.442H452.012L449.874 522.961H450.797ZM457.52 518.688C457.413 517.757 456.713 517.098 455.555 517.098C454.2 517.098 453.404 517.967 453.404 519.426C453.404 520.901 454.204 521.778 455.559 521.778C456.7 521.778 457.409 521.144 457.52 520.213H456.548C456.441 520.686 456.086 520.938 455.555 520.938C454.859 520.938 454.439 520.382 454.439 519.426C454.439 518.486 454.855 517.934 455.555 517.934C456.115 517.934 456.453 518.252 456.548 518.688H457.52ZM461.5 520.456C461.352 520.793 461.001 520.983 460.495 520.983C459.823 520.983 459.391 520.505 459.366 519.743V519.689H462.513V519.364C462.513 517.951 461.743 517.098 460.458 517.098C459.152 517.098 458.34 518.008 458.34 519.455C458.34 520.896 459.139 521.778 460.466 521.778C461.529 521.778 462.283 521.267 462.468 520.456H461.5ZM460.454 517.893C461.067 517.893 461.471 518.326 461.492 519.01H459.37C459.415 518.334 459.844 517.893 460.454 517.893ZM466.077 517.11C465.459 517.11 464.936 517.419 464.676 517.93H464.606V517.184H463.622V523.183H464.643V521.004H464.714C464.944 521.482 465.443 521.762 466.09 521.762C467.227 521.762 467.935 520.868 467.935 519.438C467.935 517.996 467.218 517.11 466.077 517.11ZM465.756 520.913C465.06 520.913 464.627 520.349 464.623 519.438C464.627 518.528 465.064 517.963 465.76 517.963C466.46 517.963 466.885 518.515 466.885 519.438C466.885 520.361 466.464 520.913 465.756 520.913ZM470.049 521.688L471.969 518.655H472.039V521.688H473.048V517.184H472.039L470.119 520.2H470.049V517.184H469.039V521.688H470.049ZM475.623 521.762C476.212 521.762 476.706 521.506 476.958 521.07H477.028V521.688H478.012V518.61C478.012 517.658 477.362 517.098 476.204 517.098C475.133 517.098 474.387 517.601 474.305 518.387H475.269C475.363 518.078 475.685 517.91 476.154 517.91C476.706 517.91 477.003 518.161 477.003 518.61V518.997L475.841 519.067C474.745 519.129 474.132 519.603 474.132 520.41C474.132 521.234 474.754 521.762 475.623 521.762ZM475.924 520.975C475.47 520.975 475.145 520.748 475.145 520.361C475.145 519.986 475.413 519.776 475.985 519.739L477.003 519.669V520.035C477.003 520.571 476.542 520.975 475.924 520.975ZM480.649 519.603L480.76 517.984H482.083V521.688H483.1V517.184H479.871L479.722 519.549C479.677 520.307 479.529 520.831 479.092 520.831C478.981 520.831 478.89 520.81 478.845 520.798V521.683C478.902 521.704 479.018 521.733 479.187 521.733C480.229 521.733 480.563 520.896 480.649 519.603ZM486.38 521.778C487.727 521.778 488.547 520.896 488.547 519.434C488.547 517.98 487.723 517.098 486.38 517.098C485.041 517.098 484.213 517.984 484.213 519.434C484.213 520.896 485.029 521.778 486.38 521.778ZM486.38 520.942C485.667 520.942 485.259 520.39 485.259 519.438C485.259 518.486 485.667 517.934 486.38 517.934C487.089 517.934 487.496 518.486 487.496 519.438C487.496 520.39 487.093 520.942 486.38 520.942ZM491.814 521.688C492.815 521.688 493.425 521.173 493.425 520.402C493.425 519.854 493.034 519.442 492.44 519.376V519.306C492.898 519.228 493.223 518.812 493.223 518.338C493.223 517.642 492.692 517.184 491.785 517.184H489.655V521.688H491.814ZM490.665 517.893H491.55C492.004 517.893 492.222 518.124 492.222 518.47C492.222 518.849 491.975 519.055 491.468 519.055H490.665V517.893ZM490.665 519.743H491.542C492.102 519.743 492.391 519.949 492.391 520.357C492.391 520.748 492.131 520.979 491.637 520.979H490.665V519.743Z" fill="#808080"/>
<path d="M397.5 120.812C378.688 120.812 363.438 136.063 363.438 154.875C363.438 173.687 378.688 188.937 397.5 188.937C416.312 188.937 431.562 173.687 431.562 154.875C431.562 145.841 427.974 137.177 421.586 130.789C415.198 124.401 406.534 120.812 397.5 120.812Z" fill="#EEBF17"/>
<g clip-path="url(#clip3)">
<path d="M411.103 161.041C410.702 157.724 409.905 151.738 409.525 148.753C409.332 147.234 408.034 146.089 406.507 146.089H388.493C386.965 146.089 385.667 147.234 385.474 148.753C385.098 151.717 384.298 157.726 383.897 161.041C383.792 161.909 384.064 162.782 384.643 163.435C385.22 164.086 386.049 164.459 386.918 164.459H388.812C389.978 164.459 391.023 163.809 391.54 162.761L394.079 157.613H400.92L403.46 162.761C403.976 163.809 405.022 164.459 406.188 164.459H408.082C408.951 164.459 409.78 164.086 410.357 163.435C410.936 162.782 411.208 161.909 411.103 161.041ZM393.094 152.868H392.416V153.546C392.416 154.107 391.96 154.563 391.399 154.563C390.837 154.563 390.382 154.107 390.382 153.546V152.868H389.704C389.143 152.868 388.687 152.413 388.687 151.851C388.687 151.289 389.143 150.834 389.704 150.834H390.382V150.156C390.382 149.595 390.837 149.14 391.399 149.14C391.96 149.14 392.416 149.595 392.416 150.156V150.834H393.094C393.655 150.834 394.11 151.289 394.11 151.851C394.11 152.413 393.655 152.868 393.094 152.868ZM403.438 153.655C403.041 154.052 402.397 154.052 402 153.655C401.603 153.258 401.603 152.614 402 152.217C402.397 151.82 403.041 151.82 403.438 152.217C403.836 152.614 403.836 153.258 403.438 153.655ZM405.337 151.757C404.939 152.154 404.296 152.154 403.899 151.757C403.501 151.359 403.501 150.716 403.899 150.319C404.296 149.922 404.939 149.922 405.337 150.319C405.734 150.716 405.734 151.359 405.337 151.757Z" fill="white"/>
</g>
<path d="M387.144 206.75H388.569V198.75H387.183L383.329 204.505H383.235V198.75H381.805V206.75H383.191L387.044 201.012H387.144V206.75ZM394.6 201.766V200.69H390.515V206.75H391.889V201.766H394.6ZM399.302 200.591C398.47 200.591 397.766 201.006 397.417 201.694H397.323V200.69H395.998V208.762H397.372V205.83H397.467C397.777 206.473 398.448 206.85 399.318 206.85C400.849 206.85 401.802 205.647 401.802 203.723C401.802 201.783 400.838 200.591 399.302 200.591ZM398.869 205.708C397.932 205.708 397.35 204.948 397.345 203.723C397.35 202.498 397.938 201.738 398.875 201.738C399.817 201.738 400.388 202.481 400.388 203.723C400.388 204.965 399.823 205.708 398.869 205.708ZM408.943 206.75H410.312V200.69H408.943V206.75ZM403.288 206.75H405.866C407.28 206.75 408.183 205.929 408.183 204.638C408.183 203.346 407.28 202.52 405.866 202.52H404.663V200.69H403.288V206.75ZM405.7 203.584C406.376 203.584 406.814 204 406.814 204.632C406.814 205.259 406.382 205.68 405.7 205.68H404.663V203.584H405.7ZM357.267 219.75L359.851 215.67H359.945V219.75H361.303V213.69H359.945L357.361 217.749H357.267V213.69H355.909V219.75H357.267ZM369.431 213.591C368.599 213.591 367.895 214.006 367.546 214.694H367.451V213.69H366.126V221.762H367.501V218.83H367.596C367.906 219.473 368.577 219.85 369.447 219.85C370.977 219.85 371.931 218.647 371.931 216.723C371.931 214.783 370.966 213.591 369.431 213.591ZM368.998 218.708C368.061 218.708 367.479 217.948 367.474 216.723C367.479 215.498 368.067 214.738 369.004 214.738C369.946 214.738 370.517 215.481 370.517 216.723C370.517 217.965 369.952 218.708 368.998 218.708ZM375.091 219.85C375.884 219.85 376.549 219.506 376.887 218.918H376.982V219.75H378.307V215.609C378.307 214.328 377.431 213.574 375.873 213.574C374.431 213.574 373.428 214.25 373.317 215.309H374.614C374.742 214.893 375.174 214.666 375.806 214.666C376.549 214.666 376.948 215.004 376.948 215.609V216.13L375.385 216.224C373.91 216.307 373.084 216.945 373.084 218.031C373.084 219.14 373.921 219.85 375.091 219.85ZM375.496 218.791C374.886 218.791 374.448 218.486 374.448 217.965C374.448 217.46 374.808 217.178 375.579 217.128L376.948 217.033V217.527C376.948 218.248 376.327 218.791 375.496 218.791ZM382.343 219.866C383.901 219.866 384.893 219.09 384.893 217.965C384.893 217.277 384.488 216.795 383.64 216.629V216.534C384.294 216.385 384.699 215.891 384.699 215.248C384.699 214.217 383.812 213.568 382.376 213.568C380.873 213.568 380.02 214.306 379.898 215.387H381.206C381.278 214.938 381.694 214.649 382.332 214.649C383.019 214.649 383.352 214.977 383.352 215.415C383.352 215.919 383.019 216.207 382.315 216.207H381.45V217.139H382.32C383.108 217.139 383.524 217.405 383.524 217.948C383.524 218.453 383.08 218.791 382.326 218.791C381.661 218.791 381.201 218.525 381.079 218.031H379.737C379.853 219.24 380.946 219.866 382.343 219.866ZM389.317 219.75C390.664 219.75 391.485 219.057 391.485 218.02C391.485 217.283 390.958 216.729 390.16 216.64V216.546C390.775 216.44 391.213 215.88 391.213 215.243C391.213 214.306 390.498 213.69 389.278 213.69H386.412V219.75H389.317ZM387.77 214.644H388.962C389.572 214.644 389.866 214.954 389.866 215.42C389.866 215.93 389.533 216.207 388.851 216.207H387.77V214.644ZM387.77 217.133H388.951C389.705 217.133 390.093 217.41 390.093 217.959C390.093 218.486 389.744 218.796 389.079 218.796H387.77V217.133ZM394.728 216.945L394.878 214.766H396.657V219.75H398.027V213.69H393.68L393.481 216.873C393.42 217.893 393.22 218.597 392.632 218.597C392.483 218.597 392.361 218.569 392.3 218.552V219.744C392.377 219.772 392.533 219.811 392.76 219.811C394.162 219.811 394.612 218.686 394.728 216.945ZM403.776 218.092C403.576 218.547 403.105 218.802 402.423 218.802C401.519 218.802 400.937 218.159 400.904 217.133V217.061H405.14V216.623C405.14 214.722 404.103 213.574 402.373 213.574C400.616 213.574 399.524 214.799 399.524 216.745C399.524 218.686 400.599 219.872 402.384 219.872C403.815 219.872 404.829 219.185 405.079 218.092H403.776ZM402.368 214.644C403.194 214.644 403.737 215.226 403.765 216.146H400.91C400.971 215.237 401.547 214.644 402.368 214.644ZM411.521 219.75V213.69H410.146V216.18C409.924 216.412 409.492 216.573 408.887 216.573C408.133 216.573 407.745 216.135 407.745 215.387V213.69H406.37V215.503C406.37 216.85 407.185 217.721 408.627 217.721C409.248 217.721 409.73 217.571 410.052 217.327H410.146V219.75H411.521ZM417.27 218.092C417.07 218.547 416.599 218.802 415.917 218.802C415.014 218.802 414.431 218.159 414.398 217.133V217.061H418.634V216.623C418.634 214.722 417.597 213.574 415.867 213.574C414.11 213.574 413.018 214.799 413.018 216.745C413.018 218.686 414.093 219.872 415.878 219.872C417.309 219.872 418.323 219.185 418.573 218.092H417.27ZM415.862 214.644C416.688 214.644 417.231 215.226 417.259 216.146H414.404C414.465 215.237 415.041 214.644 415.862 214.644ZM424.061 219.75H425.436V213.69H424.061V216.091H421.495V213.69H420.12V219.75H421.495V217.166H424.061V219.75ZM428.585 219.75L431.169 215.67H431.263V219.75H432.621V213.69H431.263L428.68 217.749H428.585V213.69H427.227V219.75H428.585ZM437.733 219.75H439.086V213.69H436.585C435.172 213.69 434.24 214.483 434.24 215.753C434.24 216.59 434.745 217.239 435.571 217.482L433.946 219.75H435.521L436.94 217.71H437.733V219.75ZM436.691 216.69C436.031 216.69 435.599 216.302 435.599 215.753C435.599 215.143 436.025 214.76 436.691 214.76H437.733V216.69H436.691Z" fill="#808080"/>
<circle cx="72" cy="361" r="18" fill="#F5F5F5"/>
<circle cx="72" cy="361" r="17.75" stroke="#5F47F0" stroke-opacity="0.2" stroke-width="0.5"/>
<g clip-path="url(#clip4)">
<path d="M81.6643 360.104L78.6332 357.073V353.572C78.6332 352.939 78.1202 352.426 77.4861 352.426C76.8535 352.426 76.3405 352.939 76.3405 353.572V354.781L74.0836 352.524C72.9678 351.408 71.0277 351.41 69.9144 352.526L62.3355 360.104C61.8882 360.553 61.8882 361.278 62.3355 361.726C62.7831 362.174 63.5099 362.174 63.9574 361.726L71.5355 354.147C71.7824 353.901 72.2175 353.901 72.4631 354.146L80.0425 361.726C80.2673 361.95 80.5603 362.061 80.8532 362.061C81.1468 362.061 81.4403 361.949 81.6643 361.726C82.1119 361.278 82.1119 360.553 81.6643 360.104Z" fill="#A9ABC9"/>
<path d="M72.3983 356.322C72.1781 356.102 71.8216 356.102 71.6021 356.322L64.9357 362.987C64.8304 363.092 64.7708 363.236 64.7708 363.386V368.246C64.7708 369.387 65.6956 370.312 66.8362 370.312H70.1367V365.2H73.863V370.312H77.1635C78.3041 370.312 79.2289 369.387 79.2289 368.246V363.386C79.2289 363.236 79.1698 363.092 79.064 362.987L72.3983 356.322Z" fill="#A9ABC9"/>
</g>
<circle cx="226.5" cy="87.5" r="16.5" fill="#F5F5F5"/>
<circle cx="226.5" cy="87.5" r="16.25" stroke="#5F47F0" stroke-opacity="0.2" stroke-width="0.5"/>
<g clip-path="url(#clip5)">
<path d="M230.932 78.3334V85.5976H228.995L223.445 81.7926V85.5976L217.896 81.7926V96.6667H230.932H231.444H235.104V78.3334H230.932ZM224.04 90.8824H219.735V87.9613H224.04V90.8824ZM230.805 90.8824H226.5V87.9613H230.805V90.8824Z" fill="#A9ABC9"/>
</g>
<circle cx="250.5" cy="239.5" r="21.5" fill="#F5F5F5"/>
<circle cx="250.5" cy="239.5" r="21.25" stroke="#5F47F0" stroke-opacity="0.2" stroke-width="0.5"/>
<g clip-path="url(#clip6)">
<path d="M262.198 240.778C262.527 239.985 262.527 239.076 262.198 238.283C260.256 233.598 255.664 230.571 250.5 230.571C248.331 230.571 246.263 231.106 244.45 232.074L241.249 228.872C240.86 228.483 240.231 228.483 239.841 228.872C239.452 229.261 239.452 229.89 239.841 230.28L252.51 242.948L256.545 246.983L259.75 250.188C259.945 250.383 260.199 250.48 260.454 250.48C260.709 250.48 260.964 250.383 261.158 250.189C261.547 249.8 261.547 249.17 261.158 248.781L258.258 245.881C259.968 244.58 261.342 242.843 262.198 240.778V240.778ZM248.484 236.107C249.074 235.754 249.762 235.549 250.5 235.549C252.696 235.549 254.482 237.335 254.482 239.531C254.482 240.268 254.277 240.956 253.923 241.546L248.484 236.107Z" fill="#A9ABC9"/>
<path d="M250.499 243.512C248.303 243.512 246.518 241.726 246.518 239.53C246.518 239.386 246.545 239.25 246.56 239.11L241.607 234.157C240.424 235.31 239.458 236.698 238.802 238.283C238.473 239.075 238.473 239.984 238.802 240.778C240.743 245.462 245.335 248.489 250.499 248.489C252.109 248.489 253.663 248.195 255.098 247.648L250.919 243.469C250.78 243.484 250.644 243.512 250.499 243.512V243.512Z" fill="#A9ABC9"/>
</g>
<circle cx="449" cy="358" r="21" fill="#F5F5F5"/>
<circle cx="449" cy="358" r="20.75" stroke="#5F47F0" stroke-opacity="0.2" stroke-width="0.5"/>
<path d="M457.224 356.451C456.39 356.451 455.625 356.152 455.031 355.655V360.431H459.406V355.664C458.813 356.155 458.052 356.451 457.224 356.451Z" fill="#A9ABC9"/>
<path d="M440.76 356.45C439.932 356.45 439.171 356.155 438.578 355.664V360.43H442.969V355.642C442.372 356.146 441.601 356.45 440.76 356.45Z" fill="#A9ABC9"/>
<path d="M459.406 366.553V361.798H438.578V366.553H437.333V367.92H460.667V366.553H459.406V366.553ZM452.16 365.201H445.84V363.833H452.16V365.201Z" fill="#A9ABC9"/>
<path d="M451.736 356.45C450.615 356.45 449.618 355.909 448.992 355.075C448.366 355.909 447.369 356.45 446.248 356.45C445.541 356.45 444.883 356.235 444.336 355.866V360.43H453.664V355.855C453.114 356.23 452.45 356.45 451.736 356.45Z" fill="#A9ABC9"/>
<path d="M456.421 346.333H441.596L438.615 351.665H459.385L456.421 346.333Z" fill="#A9ABC9"/>
<path d="M455.163 353.033C455.168 354.164 456.091 355.083 457.223 355.083C458.356 355.083 459.278 354.164 459.283 353.033H455.163Z" fill="#A9ABC9"/>
<path d="M438.7 353.033C438.705 354.164 439.627 355.083 440.76 355.083C441.893 355.083 442.815 354.164 442.82 353.033H438.7Z" fill="#A9ABC9"/>
<path d="M449.676 353.033C449.681 354.164 450.603 355.083 451.736 355.083C452.869 355.083 453.791 354.164 453.796 353.033H449.676Z" fill="#A9ABC9"/>
<path d="M444.188 353.033C444.193 354.164 445.115 355.083 446.248 355.083C447.381 355.083 448.303 354.164 448.308 353.033H444.188Z" fill="#A9ABC9"/>
<circle cx="16" cy="118" r="16" fill="#F5F5F5"/>
<circle cx="16" cy="118" r="15.75" stroke="#5F47F0" stroke-opacity="0.2" stroke-width="0.5"/>
<g clip-path="url(#clip7)">
<path d="M13.7761 109.111V109.895H10.71V125.538H11.8435V111.029H13.7761V126.889L21.2897 125.538V123.328V110.465L13.7761 109.111ZM15.1583 118.609C14.9058 118.609 14.701 118.343 14.701 118.014C14.701 117.686 14.9058 117.419 15.1583 117.419C15.4109 117.419 15.6157 117.686 15.6157 118.014C15.6157 118.343 15.4109 118.609 15.1583 118.609Z" fill="#A9ABC9"/>
</g>
<g opacity="0.5">
<circle opacity="0.08" cx="681" cy="297" r="297" fill="#5A6BFF"/>
<circle opacity="0.08" cx="681" cy="297" r="227" fill="#5A6BFF"/>
<circle opacity="0.08" cx="681" cy="297" r="151" fill="#5A6BFF"/>
<circle opacity="0.08" cx="681" cy="297" r="76" fill="#5A6BFF"/>
<circle opacity="0.08" cx="681" cy="297" r="36" fill="#5A6BFF"/>
<circle cx="681" cy="297" r="22.5" fill="#5A6BFF" stroke="white" stroke-width="9"/>
</g>
</g>
<defs>
<clipPath id="clip0">
<rect width="695" height="594" fill="white"/>
</clipPath>
<clipPath id="clip1">
<rect width="51.9167" height="51.9167" fill="white" transform="translate(191.042 377.375)"/>
</clipPath>
<clipPath id="clip2">
<rect width="32.6667" height="32.6667" fill="white" transform="translate(73.6667 177.833)"/>
</clipPath>
<clipPath id="clip3">
<rect width="27.25" height="27.25" fill="white" transform="translate(383.875 141.25)"/>
</clipPath>
<clipPath id="clip4">
<rect width="20" height="20" fill="white" transform="translate(62 351)"/>
</clipPath>
<clipPath id="clip5">
<rect width="18.3333" height="18.3333" fill="white" transform="translate(217.333 78.3334)"/>
</clipPath>
<clipPath id="clip6">
<rect width="23.8889" height="23.8889" fill="white" transform="translate(238.556 227.556)"/>
</clipPath>
<clipPath id="clip7">
<rect width="17.7778" height="17.7778" fill="white" transform="translate(7.11108 109.111)"/>
</clipPath>
</defs>
</svg>
