<svg width="16" height="16" viewBox="0 0 16 16" fill="none" xmlns="http://www.w3.org/2000/svg">
<path fill-rule="evenodd" clip-rule="evenodd" d="M12.6667 2.66671H12V1.66671C12 1.48261 11.8508 1.33337 11.6667 1.33337H11C10.8159 1.33337 10.6667 1.48261 10.6667 1.66671V2.66671H5.33333V1.66671C5.33333 1.48261 5.18409 1.33337 5 1.33337H4.33333C4.14924 1.33337 4 1.48261 4 1.66671V2.66671H3.33333C2.59695 2.66671 2 3.26366 2 4.00004V12.6667C2 13.4031 2.59695 14 3.33333 14H12.6667C13.403 14 14 13.4031 14 12.6667V4.00004C14 3.26366 13.403 2.66671 12.6667 2.66671ZM12.6667 12.6667H3.33333V5.33337H12.6667V12.6667ZM8.33333 8.00004H7.66667C7.48257 8.00004 7.33333 7.8508 7.33333 7.66671V7.00004C7.33333 6.81595 7.48257 6.66671 7.66667 6.66671H8.33333C8.51743 6.66671 8.66667 6.81595 8.66667 7.00004V7.66671C8.66667 7.8508 8.51743 8.00004 8.33333 8.00004ZM10.3333 8.00004H11C11.1841 8.00004 11.3333 7.8508 11.3333 7.66671V7.00004C11.3333 6.81595 11.1841 6.66671 11 6.66671H10.3333C10.1492 6.66671 10 6.81595 10 7.00004V7.66671C10 7.8508 10.1492 8.00004 10.3333 8.00004ZM5.66667 8.00004H5C4.8159 8.00004 4.66667 7.8508 4.66667 7.66671V7.00004C4.66667 6.81595 4.8159 6.66671 5 6.66671H5.66667C5.85076 6.66671 6 6.81595 6 7.00004V7.66671C6 7.8508 5.85076 8.00004 5.66667 8.00004ZM7.66667 10.6667H8.33333C8.51743 10.6667 8.66667 10.5175 8.66667 10.3334V9.66671C8.66667 9.48261 8.51743 9.33337 8.33333 9.33337H7.66667C7.48257 9.33337 7.33333 9.48261 7.33333 9.66671V10.3334C7.33333 10.5175 7.48257 10.6667 7.66667 10.6667ZM5.66667 10.6667H5C4.8159 10.6667 4.66667 10.5175 4.66667 10.3334V9.66671C4.66667 9.48261 4.8159 9.33337 5 9.33337H5.66667C5.85076 9.33337 6 9.48261 6 9.66671V10.3334C6 10.5175 5.85076 10.6667 5.66667 10.6667Z" fill="#5F47F0"/>
</svg>
