<svg width="12" height="13" viewBox="0 0 12 13" fill="none" xmlns="http://www.w3.org/2000/svg">
<path fill-rule="evenodd" clip-rule="evenodd" d="M0.17334 6.23886C0.17334 2.94647 2.80047 0.277466 6.0412 0.277466C7.59745 0.277466 9.08996 0.905539 10.1904 2.02352C11.2908 3.14149 11.9091 4.6578 11.9091 6.23886C11.9091 9.53124 9.28193 12.2002 6.0412 12.2002C2.80047 12.2002 0.17334 9.53124 0.17334 6.23886ZM8.38887 5.21798C8.38887 5.13855 8.35762 5.06241 8.30208 5.00647L7.89133 4.58345C7.83624 4.52705 7.76125 4.49533 7.68302 4.49533C7.60479 4.49533 7.5298 4.52705 7.47471 4.58345L5.45617 6.63899L4.6112 5.77573C4.55712 5.71968 4.4831 5.6881 4.40582 5.6881C4.32855 5.6881 4.25453 5.71968 4.20045 5.77573L3.78383 6.19875C3.72829 6.25469 3.69704 6.33083 3.69704 6.41026C3.69704 6.48969 3.72829 6.56584 3.78383 6.62177L5.03368 7.89614C5.11684 7.97889 5.22825 8.02585 5.34468 8.02722H5.56766C5.68434 8.02711 5.7962 7.97997 5.87866 7.89614L8.30208 5.4295C8.35762 5.37356 8.38887 5.29742 8.38887 5.21798Z" fill="white"/>
</svg>
