<svg width="48" height="48" viewBox="0 0 48 48" fill="none" xmlns="http://www.w3.org/2000/svg">
<mask id="path-1-inside-1" fill="white">
<path d="M24 0C10.7452 0 0 10.7452 0 24C0 37.2548 10.7452 48 24 48C37.2548 48 48 37.2548 48 24C48 17.6348 45.4714 11.5303 40.9706 7.02944C36.4697 2.52856 30.3652 0 24 0Z"/>
</mask>
<path d="M24 0C10.7452 0 0 10.7452 0 24C0 37.2548 10.7452 48 24 48C37.2548 48 48 37.2548 48 24C48 17.6348 45.4714 11.5303 40.9706 7.02944C36.4697 2.52856 30.3652 0 24 0Z" fill="#5F47F0"/>
<path d="M24 -2C9.6406 -2 -2 9.6406 -2 24H2C2 11.8497 11.8497 2 24 2V-2ZM-2 24C-2 38.3594 9.6406 50 24 50V46C11.8497 46 2 36.1503 2 24H-2ZM24 50C38.3594 50 50 38.3594 50 24H46C46 36.1503 36.1503 46 24 46V50ZM50 24C50 17.1044 47.2607 10.4912 42.3848 5.61522L39.5564 8.44365C43.6822 12.5695 46 18.1652 46 24H50ZM42.3848 5.61522C37.5088 0.739278 30.8956 -2 24 -2V2C29.8348 2 35.4305 4.31785 39.5564 8.44365L42.3848 5.61522Z" fill="#5F47F0" mask="url(#path-1-inside-1)"/>
<g clip-path="url(#clip0)">
<path d="M22.7749 14.437C18.1496 14.437 14.4 18.1865 14.4 22.8118C14.4 27.4373 18.1496 31.1869 22.7749 31.1869C22.8457 31.1869 22.9156 31.183 22.986 31.1814L22.3842 30.499C22.363 30.4653 21.8772 29.6612 22.9493 28.7719C23.7106 28.1402 24.8006 28.7025 25.3889 29.099V25.1057C24.751 25.8319 23.818 26.2926 22.7749 26.2926C20.8524 26.2926 19.2938 24.7338 19.2938 22.8114C19.2938 20.8891 20.8524 19.3304 22.7749 19.3304C24.5794 19.3304 26.0622 20.703 26.2381 22.461C26.3721 22.4132 26.5142 22.3822 26.6645 22.3822C26.9584 22.3822 27.2258 22.4862 27.4415 22.6537V22.1919C27.4415 21.4884 28.0136 20.9164 28.717 20.9164C29.3815 20.9164 29.9221 21.428 29.9812 22.0772C30.1992 21.9041 30.4707 21.7962 30.7696 21.7962C30.8819 21.7962 30.9883 21.815 31.0921 21.8423C30.6116 17.6738 27.0726 14.437 22.7749 14.437ZM22.7749 18.1902C20.2265 18.1902 18.1534 20.2634 18.1534 22.8118C18.1534 22.9953 18.0044 23.144 17.8211 23.144C17.6376 23.144 17.4888 22.9953 17.4888 22.8118C17.4888 19.8969 19.8601 17.5257 22.7749 17.5257C22.9584 17.5257 23.1072 17.6745 23.1072 17.8579C23.1072 18.0413 22.9585 18.1902 22.7749 18.1902ZM22.7749 16.2893C19.1786 16.2893 16.2528 19.2152 16.2528 22.8115C16.2528 22.995 16.1039 23.1438 15.9205 23.1438C15.737 23.1438 15.5882 22.995 15.5882 22.8115C15.5882 18.8487 18.8122 15.6248 22.7749 15.6248C22.9584 15.6248 23.1072 15.7736 23.1072 15.9571C23.1072 16.1405 22.9585 16.2893 22.7749 16.2893Z" fill="white"/>
<path d="M21.6198 22.8118C21.6198 23.4488 22.1381 23.967 22.7751 23.967C23.412 23.967 23.9304 23.4488 23.9304 22.8118C23.9304 22.1748 23.412 21.6565 22.7751 21.6565C22.1381 21.6565 21.6198 22.1749 21.6198 22.8118Z" fill="white"/>
<path d="M31.5471 24.8311V23.0717C31.5471 22.7773 31.3809 22.5242 31.1396 22.3919C31.0292 22.3317 30.9046 22.2941 30.7702 22.2941C30.3413 22.2941 29.9928 22.6427 29.9928 23.0713V26.9311H29.7436H29.4944V23.0717V22.1919C29.4944 21.7633 29.1459 21.4148 28.7176 21.4148C28.2887 21.4148 27.9402 21.7633 27.9402 22.1919V23.6582V26.9311H27.4418V23.6578C27.4418 23.2292 27.0933 22.8805 26.6647 22.8805C26.5106 22.8805 26.3672 22.9271 26.2465 23.0048C26.031 23.143 25.8874 23.3836 25.8874 23.6582V24.3642V30.1398L25.4753 29.7852C25.4607 29.7729 23.9988 28.5493 23.2674 29.1554C22.5956 29.7125 22.7613 30.1434 22.7997 30.2213L23.6146 31.1447L25.7501 33.563H33.6001V24.8311C33.6001 24.4021 33.2515 24.0537 32.8229 24.0537C32.3943 24.0537 32.0455 24.4022 32.0455 24.8311V26.9311H31.5471V24.8311H31.5471Z" fill="white"/>
</g>
<defs>
<clipPath id="clip0">
<rect width="19.2" height="19.2" fill="white" transform="translate(14.4 14.4)"/>
</clipPath>
</defs>
</svg>
