<svg width="129" height="24" viewBox="0 0 129 24" fill="none" xmlns="http://www.w3.org/2000/svg">
<path d="M43.8224 19H40.4219L44.8388 5.90909H49.0511L53.468 19H50.0675L46.9929 9.20739H46.8906L43.8224 19ZM43.3686 13.848H50.4766V16.2514H43.3686V13.848ZM54.8775 22.6818V9.18182H57.9712V10.8629H58.0671C58.195 10.5646 58.3761 10.277 58.6104 10C58.8491 9.72301 59.1516 9.49716 59.5181 9.32244C59.8888 9.14347 60.332 9.05398 60.8477 9.05398C61.5295 9.05398 62.1665 9.23295 62.7589 9.59091C63.3555 9.94886 63.837 10.5007 64.2035 11.2464C64.57 11.9922 64.7532 12.9425 64.7532 14.0973C64.7532 15.2095 64.5763 16.1406 64.2227 16.8906C63.8732 17.6406 63.4002 18.2031 62.8036 18.5781C62.2113 18.9531 61.5529 19.1406 60.8285 19.1406C60.3342 19.1406 59.9059 19.0597 59.5437 18.8977C59.1815 18.7358 58.8768 18.5227 58.6296 18.2585C58.3867 17.9943 58.1992 17.7109 58.0671 17.4084H58.0032V22.6818H54.8775ZM57.9393 14.0909C57.9393 14.6193 58.0096 15.0795 58.1502 15.4716C58.2951 15.8636 58.5018 16.1683 58.7702 16.3857C59.043 16.5987 59.369 16.7053 59.7482 16.7053C60.1317 16.7053 60.4577 16.5987 60.7262 16.3857C60.9947 16.1683 61.1971 15.8636 61.3335 15.4716C61.4741 15.0795 61.5444 14.6193 61.5444 14.0909C61.5444 13.5625 61.4741 13.1044 61.3335 12.7166C61.1971 12.3288 60.9947 12.0284 60.7262 11.8153C60.462 11.6023 60.136 11.4957 59.7482 11.4957C59.3647 11.4957 59.0387 11.6001 58.7702 11.8089C58.5018 12.0178 58.2951 12.3161 58.1502 12.7038C58.0096 13.0916 57.9393 13.554 57.9393 14.0909ZM66.3912 22.6818V9.18182H69.4849V10.8629H69.5808C69.7086 10.5646 69.8897 10.277 70.1241 10C70.3627 9.72301 70.6653 9.49716 71.0318 9.32244C71.4025 9.14347 71.8457 9.05398 72.3613 9.05398C73.0431 9.05398 73.6802 9.23295 74.2726 9.59091C74.8691 9.94886 75.3507 10.5007 75.7172 11.2464C76.0836 11.9922 76.2669 12.9425 76.2669 14.0973C76.2669 15.2095 76.09 16.1406 75.7363 16.8906C75.3869 17.6406 74.9139 18.2031 74.3173 18.5781C73.725 18.9531 73.0666 19.1406 72.3422 19.1406C71.8478 19.1406 71.4196 19.0597 71.0574 18.8977C70.6951 18.7358 70.3904 18.5227 70.1433 18.2585C69.9004 17.9943 69.7129 17.7109 69.5808 17.4084H69.5169V22.6818H66.3912ZM69.4529 14.0909C69.4529 14.6193 69.5233 15.0795 69.6639 15.4716C69.8088 15.8636 70.0154 16.1683 70.2839 16.3857C70.5566 16.5987 70.8826 16.7053 71.2619 16.7053C71.6454 16.7053 71.9714 16.5987 72.2399 16.3857C72.5083 16.1683 72.7108 15.8636 72.8471 15.4716C72.9877 15.0795 73.0581 14.6193 73.0581 14.0909C73.0581 13.5625 72.9877 13.1044 72.8471 12.7166C72.7108 12.3288 72.5083 12.0284 72.2399 11.8153C71.9757 11.6023 71.6497 11.4957 71.2619 11.4957C70.8784 11.4957 70.5524 11.6001 70.2839 11.8089C70.0154 12.0178 69.8088 12.3161 69.6639 12.7038C69.5233 13.0916 69.4529 13.554 69.4529 14.0909ZM89.0462 5.90909V19H86.3615L81.152 11.4446H81.0689V19H77.9048V5.90909H80.6278L85.7798 13.4517H85.8885V5.90909H89.0462ZM93.8034 19.1662C93.177 19.1662 92.6209 19.0618 92.1351 18.853C91.6536 18.6399 91.2722 18.3203 90.9909 17.8942C90.714 17.4638 90.5755 16.9247 90.5755 16.277C90.5755 15.7315 90.6713 15.2713 90.8631 14.8963C91.0549 14.5213 91.3191 14.2166 91.6557 13.9822C91.9924 13.7479 92.3801 13.571 92.8191 13.4517C93.258 13.3281 93.7267 13.245 94.2253 13.2024C94.7836 13.1513 95.2331 13.098 95.574 13.0426C95.915 12.983 96.1621 12.8999 96.3155 12.7933C96.4732 12.6825 96.552 12.527 96.552 12.3267V12.2947C96.552 11.9666 96.4391 11.7131 96.2132 11.5341C95.9874 11.3551 95.6827 11.2656 95.2992 11.2656C94.8858 11.2656 94.5534 11.3551 94.302 11.5341C94.0506 11.7131 93.8908 11.9602 93.8226 12.2756L90.9398 12.1733C91.025 11.5767 91.2445 11.044 91.5982 10.5753C91.9561 10.1023 92.4462 9.73153 93.0684 9.46307C93.6948 9.19034 94.4469 9.05398 95.3248 9.05398C95.9512 9.05398 96.5286 9.12855 97.057 9.2777C97.5854 9.42258 98.0456 9.63565 98.4377 9.9169C98.8297 10.1939 99.1323 10.5348 99.3453 10.9396C99.5627 11.3445 99.6713 11.8068 99.6713 12.3267V19H96.731V17.6321H96.6543C96.4796 17.9645 96.2559 18.2457 95.9831 18.4759C95.7147 18.706 95.3972 18.8786 95.0307 18.9936C94.6685 19.1087 94.2594 19.1662 93.8034 19.1662ZM94.7686 17.1207C95.1053 17.1207 95.4078 17.0526 95.6763 16.9162C95.949 16.7798 96.1664 16.5923 96.3283 16.3537C96.4902 16.1108 96.5712 15.8295 96.5712 15.5099V14.5767C96.4817 14.6236 96.373 14.6662 96.2452 14.7045C96.1216 14.7429 95.9853 14.7791 95.8361 14.8132C95.687 14.8473 95.5336 14.8771 95.3759 14.9027C95.2182 14.9283 95.0669 14.9517 94.9221 14.973C94.628 15.0199 94.3766 15.0923 94.1678 15.1903C93.9632 15.2884 93.8056 15.4162 93.6948 15.5739C93.5882 15.7273 93.535 15.9105 93.535 16.1236C93.535 16.4474 93.65 16.6946 93.8801 16.8651C94.1145 17.0355 94.4107 17.1207 94.7686 17.1207ZM101.583 19V9.18182H104.555V10.9844H104.664C104.868 10.3878 105.213 9.9169 105.699 9.57173C106.185 9.22656 106.764 9.05398 107.438 9.05398C108.119 9.05398 108.703 9.22869 109.189 9.57812C109.675 9.92756 109.984 10.3963 110.116 10.9844H110.218C110.401 10.4006 110.759 9.93395 111.292 9.58452C111.825 9.23082 112.453 9.05398 113.178 9.05398C114.107 9.05398 114.861 9.35227 115.441 9.94886C116.02 10.5412 116.31 11.3551 116.31 12.3906V19H113.184V13.1065C113.184 12.6165 113.058 12.2436 112.807 11.9879C112.556 11.728 112.23 11.598 111.829 11.598C111.399 11.598 111.06 11.7386 110.813 12.0199C110.57 12.2969 110.448 12.6697 110.448 13.1385V19H107.444V13.0746C107.444 12.6186 107.32 12.2585 107.073 11.9943C106.826 11.7301 106.5 11.598 106.095 11.598C105.823 11.598 105.582 11.6641 105.373 11.7962C105.164 11.924 105 12.1072 104.881 12.3459C104.766 12.5845 104.708 12.8658 104.708 13.1896V19H101.583ZM122.836 19.1854C121.809 19.1854 120.923 18.983 120.177 18.5781C119.436 18.169 118.865 17.5874 118.464 16.8331C118.068 16.0746 117.869 15.1733 117.869 14.1293C117.869 13.1151 118.07 12.2287 118.47 11.4702C118.871 10.7074 119.436 10.1151 120.164 9.69318C120.893 9.26705 121.752 9.05398 122.74 9.05398C123.439 9.05398 124.078 9.16264 124.658 9.37997C125.237 9.5973 125.738 9.91903 126.16 10.3452C126.582 10.7713 126.91 11.2976 127.144 11.924C127.379 12.5462 127.496 13.2599 127.496 14.0653V14.8452H118.963V13.0298H124.588C124.583 12.6974 124.504 12.4013 124.351 12.1413C124.198 11.8814 123.987 11.679 123.718 11.5341C123.454 11.3849 123.149 11.3104 122.804 11.3104C122.455 11.3104 122.142 11.3892 121.865 11.5469C121.588 11.7003 121.368 11.9112 121.206 12.1797C121.044 12.4439 120.959 12.7443 120.95 13.081V14.9283C120.95 15.3288 121.029 15.6804 121.187 15.983C121.345 16.2812 121.568 16.5135 121.858 16.6797C122.148 16.8459 122.493 16.929 122.894 16.929C123.171 16.929 123.422 16.8906 123.648 16.8139C123.874 16.7372 124.068 16.6243 124.23 16.4751C124.392 16.326 124.513 16.1428 124.594 15.9254L127.464 16.0085C127.345 16.652 127.083 17.2124 126.678 17.6896C126.277 18.1626 125.751 18.5312 125.099 18.7955C124.447 19.0554 123.693 19.1854 122.836 19.1854Z" fill="black"/>
<rect width="24" height="24" rx="5.76" fill="#C4C4C4"/>
<g clip-path="url(#clip0)">
<rect width="24" height="24" rx="5.76" fill="url(#paint0_linear)"/>
<g clip-path="url(#clip1)">
<rect width="24" height="24" fill="url(#paint1_linear)"/>
<rect width="24" height="24" fill="url(#paint2_linear)"/>
<rect width="24" height="24" fill="url(#paint3_linear)"/>
<g clip-path="url(#clip2)">
<path d="M14.5513 11.0664L14.5557 11.0588L15.0187 10.2569C15.3823 9.62713 15.1666 8.82196 14.5368 8.45838L13.2066 7.69037L13.8649 6.55019C14.2284 5.9205 15.0337 5.70474 15.6634 6.06829C16.293 6.43184 16.5088 7.23708 16.1453 7.86676C15.5393 8.91627 15.8989 10.2583 16.9484 10.8642C17.9979 11.4702 19.3399 11.1106 19.9459 10.0611C20.0671 9.85116 19.9952 9.58279 19.7853 9.4616C19.5754 9.34041 19.307 9.41232 19.1858 9.62223C18.8223 10.2519 18.0171 10.4677 17.3873 10.1041C16.7576 9.74055 16.5419 8.93538 16.9054 8.30565C17.5113 7.25612 17.1517 5.91408 16.1022 5.30815C15.0527 4.70221 13.7107 5.06181 13.1047 6.11132L12.4465 7.25151L11.4963 6.70294C10.8666 6.33939 10.0614 6.55511 9.69784 7.18484L9.23046 7.99438C3.54829 6.74918 -2.06741 10.3461 -3.3126 16.0282C-4.28514 20.4662 -2.3023 25.0277 1.60624 27.3439C6.67664 30.195 13.0982 28.3958 15.9493 23.3254C18.1761 19.3653 17.6126 14.4235 14.5513 11.0664ZM-0.579372 20.1581C-0.522103 20.3936 -0.666554 20.6309 -0.902041 20.6883C-1.00684 20.7138 -1.11731 20.6998 -1.21247 20.649C-1.31955 20.5881 -1.3961 20.4851 -1.4235 20.365C-2.42054 15.8666 0.185815 11.3522 4.58008 9.96649C4.79577 9.85591 5.06023 9.94114 5.17081 10.1568C5.28138 10.3725 5.19616 10.637 4.98047 10.7476C4.93266 10.772 4.88076 10.7876 4.82735 10.7934C0.870394 12.0419 -1.47661 16.107 -0.579372 20.1581Z" fill="#262628"/>
</g>
</g>
</g>
<defs>
<linearGradient id="paint0_linear" x1="28.2" y1="-4" x2="-8.34465e-07" y2="24" gradientUnits="userSpaceOnUse">
<stop stop-color="#5F47F0"/>
<stop offset="1" stop-color="#AEA0FF"/>
</linearGradient>
<linearGradient id="paint1_linear" x1="28.2" y1="-4" x2="-8.34465e-07" y2="24" gradientUnits="userSpaceOnUse">
<stop stop-color="white"/>
<stop offset="1" stop-color="#AEA0FF"/>
</linearGradient>
<linearGradient id="paint2_linear" x1="28.2" y1="-4" x2="-8.34465e-07" y2="24" gradientUnits="userSpaceOnUse">
<stop stop-color="white"/>
<stop offset="1" stop-color="white"/>
</linearGradient>
<linearGradient id="paint3_linear" x1="28.2" y1="-4" x2="-8.34465e-07" y2="24" gradientUnits="userSpaceOnUse">
<stop stop-color="#4776F0"/>
<stop offset="1" stop-color="#AEA0FF"/>
</linearGradient>
<clipPath id="clip0">
<rect width="24" height="24" rx="5.76" fill="white"/>
</clipPath>
<clipPath id="clip1">
<rect width="24" height="24" fill="white"/>
</clipPath>
<clipPath id="clip2">
<rect width="30.1906" height="30.1906" fill="white" transform="translate(-12 1.41382) rotate(-15)"/>
</clipPath>
</defs>
</svg>
