<svg width="16" height="16" viewBox="0 0 16 16" fill="none" xmlns="http://www.w3.org/2000/svg">
<g id="ico / 24 / actions / time">
<path id="Icon color" fill-rule="evenodd" clip-rule="evenodd" d="M8.00004 1.33337C4.31814 1.33337 1.33337 4.31814 1.33337 8.00004C1.33337 11.6819 4.31814 14.6667 8.00004 14.6667C11.6819 14.6667 14.6667 11.6819 14.6667 8.00004C14.6667 6.23193 13.9643 4.53624 12.7141 3.286C11.4638 2.03575 9.76815 1.33337 8.00004 1.33337ZM8.00004 13.3334C5.05452 13.3334 2.66671 10.9456 2.66671 8.00004C2.66671 5.05452 5.05452 2.66671 8.00004 2.66671C10.9456 2.66671 13.3334 5.05452 13.3334 8.00004C13.3334 9.41453 12.7715 10.7711 11.7713 11.7713C10.7711 12.7715 9.41453 13.3334 8.00004 13.3334ZM8.58667 4.33337V7.76004L11.0067 10.18C11.1345 10.3119 11.1345 10.5215 11.0067 10.6534L10.6533 11.0067C10.5215 11.1346 10.3119 11.1346 10.18 11.0067L7.51333 8.34004C7.45225 8.27734 7.41661 8.19419 7.41333 8.10671V4.33337C7.41333 4.14928 7.56257 4.00004 7.74667 4.00004H8.25333C8.43743 4.00004 8.58667 4.14928 8.58667 4.33337Z" fill="#5F47F0"/>
</g>
</svg>
